<?xml version="1.0" encoding="utf-8"?>
<!-- Generator: Adobe Illustrator 27.7.0, SVG Export Plug-In . SVG Version: 6.00 Build 0)  -->
<svg version="1.1" id="Layer_1" xmlns="http://www.w3.org/2000/svg" xmlns:xlink="http://www.w3.org/1999/xlink" x="0px" y="0px"
	 viewBox="0 0 42.7 42.7" style="enable-background:new 0 0 42.7 42.7;" xml:space="preserve">
<path d="M13.4,29.9c1.1,0,2-0.9,2-2s-0.9-2-2-2s-2,0.9-2,2S12.3,29.9,13.4,29.9z M31.4,27.9c0,1.1-0.9,2-2,2c-1.1,0-2-0.9-2-2
	s0.9-2,2-2C30.5,25.9,31.4,26.8,31.4,27.9z M18.9,7.9c-0.8,0-1.5,0.7-1.5,1.5s0.7,1.5,1.5,1.5h5c0.8,0,1.5-0.7,1.5-1.5
	s-0.7-1.5-1.5-1.5H18.9z M12.9,1.9c-4.1,0-7.5,3.4-7.5,7.5v7.5H2.9c-0.8,0-1.5,0.7-1.5,1.5s0.7,1.5,1.5,1.5h2.5v17.5
	c0,1.9,1.6,3.5,3.5,3.5h3c1.9,0,3.5-1.6,3.5-3.5v-2.5h12v2.5c0,1.9,1.6,3.5,3.5,3.5h3c1.9,0,3.5-1.6,3.5-3.5V19.9h2.5
	c0.8,0,1.5-0.7,1.5-1.5s-0.7-1.5-1.5-1.5h-2.5V9.4c0-4.1-3.4-7.5-7.5-7.5H12.9z M34.4,34.9v2.5c0,0.3-0.2,0.5-0.5,0.5h-3
	c-0.3,0-0.5-0.2-0.5-0.5v-2.5H34.4z M34.4,31.9h-26v-8h26V31.9z M8.4,37.4v-2.5h4v2.5c0,0.3-0.2,0.5-0.5,0.5h-3
	C8.6,37.9,8.4,37.6,8.4,37.4z M8.4,9.4c0-2.5,2-4.5,4.5-4.5h17c2.5,0,4.5,2,4.5,4.5v11.5h-26V9.4z"/>
</svg>
