<?xml version="1.0" encoding="utf-8"?>
<!-- Generator: Adobe Illustrator 27.7.0, SVG Export Plug-In . SVG Version: 6.00 Build 0)  -->
<svg version="1.1" id="Layer_1" xmlns="http://www.w3.org/2000/svg" xmlns:xlink="http://www.w3.org/1999/xlink" x="0px" y="0px"
	 viewBox="0 0 42.7 42.7" style="enable-background:new 0 0 42.7 42.7;" xml:space="preserve">
<path d="M34.5,3C35.3,3,36,3.6,36,4.4l0,0.2v33.6c0.1,0.9-0.6,1.6-1.5,1.7c-0.9,0.1-1.6-0.6-1.7-1.5l0,0V27.7h-4.7
	c-0.8,0-1.4-0.6-1.6-1.4l0-0.2V10.9C26.6,6.5,30.1,3,34.5,3z M21.9,3c0.8,0,1.5,0.6,1.6,1.4l0,0.2V13c0,4-2.9,7.5-6.8,8.2v16.9
	c0.1,0.9-0.6,1.6-1.5,1.7c-0.9,0.1-1.6-0.6-1.7-1.5l0,0V21.2c-3.8-0.7-6.6-4-6.8-7.8l0-0.4V4.6C6.6,3.7,7.3,3,8.1,2.9
	C9,2.8,9.8,3.5,9.8,4.4V13c0,2.3,1.5,4.3,3.7,5V4.6C13.4,3.7,14.1,3,15,2.9c0.9-0.1,1.6,0.6,1.7,1.5V18c2-0.6,3.5-2.5,3.7-4.6l0-0.4
	V4.6C20.3,3.7,21,3,21.9,3z M32.9,24.5V6.4c-1.8,0.6-3,2.2-3.1,4.1v14H32.9V6.4V24.5z"/>
</svg>
