<?xml version="1.0" encoding="utf-8"?>
<!-- Generator: Adobe Illustrator 27.7.0, SVG Export Plug-In . SVG Version: 6.00 Build 0)  -->
<svg version="1.1" id="Layer_1" xmlns="http://www.w3.org/2000/svg" xmlns:xlink="http://www.w3.org/1999/xlink" x="0px" y="0px"
	 viewBox="0 0 42.7 42.7" style="enable-background:new 0 0 42.7 42.7;" xml:space="preserve">
<style type="text/css">
	.st0{fill-rule:evenodd;clip-rule:evenodd;}
</style>
<path class="st0" d="M6.7,6.7c0-2.7,2.2-4.9,4.9-4.9h19.6c2.7,0,4.9,2.2,4.9,4.9v2.8l2.3,1.2C40,11.5,41,13.2,41,15v21.1
	c0,2.7-2.2,4.9-4.9,4.9H6.7c-2.7,0-4.9-2.2-4.9-4.9V15c0-1.8,1-3.5,2.6-4.3l2.3-1.2V6.7z M6.7,12.2l-1.2,0.6
	c-0.8,0.4-1.3,1.3-1.3,2.2v2l2.5,1.5V12.2z M9.1,19.9l9.2,5.5l3.1-1.8l3.1,1.8l9.2-5.5V6.7c0-1.4-1.1-2.5-2.5-2.5H11.6
	c-1.4,0-2.5,1.1-2.5,2.5V19.9z M36.1,18.5l2.5-1.5v-2c0-0.9-0.5-1.7-1.3-2.2l-1.2-0.6V18.5z M21.4,9.1c4.1-4.1,14.3,3.1,0,12.3
	C7.1,12.1,17.3,5,21.4,9.1z M38.5,19.9l-11.7,7l11.7,7V19.9z M38.5,36.7L21.4,26.5L4.3,36.7c0.3,1.1,1.3,1.8,2.4,1.8h29.4
	C37.2,38.5,38.2,37.8,38.5,36.7L38.5,36.7z M4.2,33.9l11.7-7l-11.7-7V33.9L4.2,33.9z"/>
</svg>
