<?xml version="1.0" encoding="utf-8"?>
<!-- Generator: Adobe Illustrator 27.7.0, SVG Export Plug-In . SVG Version: 6.00 Build 0)  -->
<svg version="1.1" id="Layer_1" xmlns="http://www.w3.org/2000/svg" xmlns:xlink="http://www.w3.org/1999/xlink" x="0px" y="0px"
	 viewBox="0 0 42.7 42.7" style="enable-background:new 0 0 42.7 42.7;" xml:space="preserve">
<style type="text/css">
	.st0{fill-rule:evenodd;clip-rule:evenodd;}
</style>
<g>
	<path class="st0" d="M27.3,3c0.5-0.5,1.3-0.5,1.9,0c0,0,0,0,0,0l10.5,10.5c0.5,0.5,0.5,1.3,0,1.9c0,0,0,0,0,0l-5,5l-2.2,8.7
		c-0.3,1.3-1.4,2.4-2.7,2.8L2.6,40.1l8.2-27.2c0.4-1.3,1.5-2.4,2.8-2.7L22.3,8L27.3,3z M22.6,10.7l-8.3,2.1
		c-0.5,0.1-0.8,0.5-0.9,0.9L6.6,36.2l22.5-6.8c0.4-0.1,0.8-0.5,0.9-0.9l2.1-8.3L22.6,10.7L22.6,10.7z"/>
	<path class="st0" d="M6.8,36.1L20.4,25c1.5,0,2.6-1.2,2.6-2.6s-1.2-2.6-2.6-2.6s-2.6,1.2-2.6,2.6L6.6,36l-0.1,0.2
		C6.6,36.2,6.8,36.1,6.8,36.1z"/>
</g>
</svg>
