<?xml version="1.0" encoding="utf-8"?>
<!-- Generator: Adobe Illustrator 27.7.0, SVG Export Plug-In . SVG Version: 6.00 Build 0)  -->
<svg version="1.1" id="Layer_1" xmlns="http://www.w3.org/2000/svg" xmlns:xlink="http://www.w3.org/1999/xlink" x="0px" y="0px"
	 viewBox="0 0 42.7 42.7" style="enable-background:new 0 0 42.7 42.7;" xml:space="preserve">
<g>
	<path d="M29.7,24.3L28.8,24l-7.4,7.4L14,24l-0.9,0.3C7,26.2,2.9,31.8,2.9,38.2c0,2.3,1.9,4.1,4.1,4.1h28.7c2.3,0,4.1-1.9,4.1-4.1
		C39.9,31.8,35.8,26.2,29.7,24.3z M35.7,39.3H7c-0.6,0-1.1-0.5-1.1-1.1c0-4.8,2.9-9,7.3-10.8l8.2,8.2l8.2-8.2
		c4.4,1.8,7.3,6,7.3,10.8C36.9,38.8,36.4,39.3,35.7,39.3z"/>
	<path d="M4.4,9.2v2.6c-0.6,0.6-0.9,1.4-0.9,2.2c0,0.7,0.2,1.4,0.7,2l-1,3.9c-0.2,0.7,0,1.5,0.4,2.1c0.4,0.5,1,0.8,1.6,0.8h3.2
		c0.6,0,1.2-0.3,1.6-0.8c0.4-0.6,0.6-1.4,0.4-2l-1-4c0.4-0.6,0.7-1.3,0.7-2c0-0.9-0.3-1.6-0.9-2.2v-1.4l0.9,0.2l0,3.4
		c0,6.2,5,11.2,11.2,11.2c6.1,0,11.1-5,11.1-11.2l0.1-3.4l5.1-1.2c1.3-0.3,2.2-1.4,2.2-2.6c0-1.3-0.9-2.3-2.2-2.7L23.2,0.7
		c-1.2-0.3-2.5-0.3-3.7,0L5.1,4.1C3.7,4.5,2.9,5.5,2.9,6.8C2.9,7.8,3.5,8.7,4.4,9.2z M20.2,3.6c0.8-0.2,1.6-0.2,2.3,0l13.4,3.2
		l-6.3,1.5l-0.1,5.8c0,4.5-3.7,8.2-8.1,8.2c-4.5,0-8.2-3.7-8.2-8.2l0-5.8L7.4,6.9L6.9,6.8L20.2,3.6z M6.7,13.8l0.1-0.1l0.1,0.1
		c0,0,0.2,0.1,0.2,0.2c0,0.1-0.1,0.2-0.2,0.3l-0.1,0.1l-0.1-0.1c-0.1,0-0.2-0.1-0.2-0.3C6.5,13.9,6.6,13.9,6.7,13.8z M6.8,17.9
		l0.5,2h-1L6.8,17.9z M5.7,6.5C5.7,6.5,5.7,6.5,5.7,6.5L5.4,8L5.7,6.5z"/>
</g>
</svg>
